# xmcd
#
# Track frame offsets:
#	150
#	18234
#	37091
#	93040
#	113284
#	131320
#	151274
#	166398
#	186146
#	208788
#	232643
#	250830
#	271322
#	289715
#	304675
#	321711
#	340615
#
# Disc length: 4795 seconds
#
# Revision: 9
# Processed by: cddbd v1.5.2PL0 Copyright (c) Steve Scherf et al.
# Submitted via: EasyCDDAExtractor 15.3.0.1
#
DISCID=d812b911
DTITLE=Eros Ramazzotti - e2 (Deluxe Edition) - CD 2
DYEAR=2007
DGENRE=Latin
TTITLE0=Ahora Tu (Con Gian Piero Reverberi and London Session Orchestra)
TTITLE1=Las Cosas Que He Visto (Producido Por Michele Canova Iorfida)
TTITLE2=Musica Es (Con Gian Piero Reverberi and London Session Orchestra)
TTITLE3=Un Atardecer Violento (Featuring Dado Moroni)
TTITLE4=Taxi Story (Featuring Jon Spencer)
TTITLE5=Cosas De La Vida (Producido Por John Shanks)
TTITLE6=La Aurora (Producido Por Wyclef Jean)
TTITLE7=La Cosa Mas Bella (Producido Por John Shanks)
TTITLE8=Donde Hay Musica (Featuring Steve Vai)
TTITLE9=Quiero Saberlo (Con Gian Piero Reverberi and London Session Orchestra)
TTITLE10=Fuego En El Fuego (Featuring Carlos Santana)
TTITLE11=La Sombra Del Gigante (Producido Por Pat Leonard)
TTITLE12=La Noche Son Tus Ojos (Featuring Rhythm Del Mundo)
TTITLE13=Un Segundo De Paz (Featuring Take 6)
TTITLE14=Una Emocion Para Siempre (Featuring The Chieftains)
TTITLE15=Solo Ayer (Con Gian Piero Reverberi and London Session Orchestra)
TTITLE16=Esta Pasando Noviembre (Featuring Amaia From La Oreja De Van Gogh)
EXTD=
EXTT0=
EXTT1=
EXTT2=
EXTT3=
EXTT4=
EXTT5=
EXTT6=
EXTT7=
EXTT8=
EXTT9=
EXTT10=
EXTT11=
EXTT12=
EXTT13=
EXTT14=
EXTT15=
EXTT16=
PLAYORDER=
